<svg xmlns="http://www.w3.org/2000/svg" viewBox="0 0 100 100"><defs/><g fill="none" fill-rule="evenodd"><path fill="#FEFEFE" fill-rule="nonzero" d="M19 72h12.47a3 3 0 012.72 1.72l.07.18 3.35 8.52a2 2 0 001.69 1.27h.16l21.43.15a2 2 0 001.78-1.06l.07-.14 3.77-8.67a3 3 0 012.55-1.8h12.42a3 3 0 011.16.23 3 3 0 011.67 3.76l-.07.17-6.38 15.2A49.77 49.77 0 0150 100c-10 0-19.32-2.94-27.13-8l-6.64-15.84a3 3 0 01-.22-.92L16 75a3 3 0 012.82-3H19z"/><path fill="#FFF" fill-rule="nonzero" d="M61 72l-1.53 5.66a3 3 0 01-2.57 1.83l-.2.01H43.64a3 3 0 01-2.69-1.66l-.08-.18L39.34 72H61z"/><g transform="translate(24.84 13)"><path fill="#FFF" fill-rule="nonzero" d="M28 11.58v1.65h15c2.2 0 4 1.78 4 3.98v5.52a10.42 10.42 0 010 17.8v9.5c0 2.19-1.8 3.97-4 3.97H9c-2.2 0-4-1.78-4-3.98v-9.5a10.42 10.42 0 010-17.79v-5.52c0-2.2 1.8-3.98 4-3.98h15v-1.65c-1.77-.77 5.77-.77 4 0zM15 25.66c-3.31 0-6 2.67-6 5.97s2.69 5.96 6 5.96 6-2.67 6-5.96c0-3.3-2.69-5.97-6-5.97zm22 0c-3.31 0-6 2.67-6 5.97s2.69 5.96 6 5.96 6-2.67 6-5.96c0-3.3-2.69-5.97-6-5.97zm-22 3.98a2 2 0 110 3.98 2 2 0 110-3.98zm22 0a2 2 0 110 3.98 2 2 0 110-3.98z"/><path stroke="#78D8FF" stroke-linecap="round" stroke-width="3" d="M20.96 45.35a7.44 7.44 0 001.01.84 7.37 7.37 0 008.38 0 7.44 7.44 0 001.02-.84"/><circle cx="26" cy="6.5" r="5" fill="#25AAE1" fill-rule="nonzero"/><circle cx="26" cy="6.5" r="6.5" fill="#25AAE1" fill-rule="nonzero" opacity=".6"/><circle cx="27" cy="5.5" r="2" fill="#FFF" fill-opacity=".6" fill-rule="nonzero"/><path fill="#25AAE1" fill-rule="nonzero" d="M9 25h34v12.5H9z"/><path fill="#0A3152" fill-rule="nonzero" d="M44.5 23.87c3 1.84 5 3.88 5 7.63s-2 5.8-5 7.63-34 1.83-37 0c-3-1.84-5-3.88-5-7.63s2-5.8 5-7.63 34-1.83 37 0zM15 25.55c-3.31 0-6 2.67-6 5.95 0 3.28 2.69 5.95 6 5.95s6-2.67 6-5.95a5.97 5.97 0 00-6-5.95zm22 0c-3.31 0-6 2.67-6 5.95 0 3.28 2.69 5.95 6 5.95s6-2.67 6-5.95a5.97 5.97 0 00-6-5.95zm-22 3.97c1.1 0 2 .89 2 1.98s-.9 1.98-2 1.98-2-.89-2-1.98.9-1.98 2-1.98zm22 0c1.1 0 2 .89 2 1.98s-.9 1.98-2 1.98-2-.89-2-1.98.9-1.98 2-1.98z"/><path fill="#F5F4F5" fill-rule="nonzero" d="M38.25 15.5h4.5c.97 0 1.75.78 1.75 1.75v1c0 .97-.78 1.75-1.75 1.75h-4.5c-.97 0-1.75-.78-1.75-1.75v-1c0-.97.78-1.75 1.75-1.75z"/><path fill="#25AAE1" fill-opacity=".3" fill-rule="nonzero" d="M15 24.5a7 7 0 110 14 7 7 0 010-14zm0 4.67a2.33 2.33 0 100 4.66 2.33 2.33 0 000-4.66z"/><path fill="#CAE9F8" fill-rule="nonzero" d="M15 25.5a6 6 0 110 12 6 6 0 010-12zm0 4a2 2 0 100 4 2 2 0 000-4z"/><path fill="#25AAE1" fill-opacity=".3" fill-rule="nonzero" d="M37 24.5a7 7 0 110 14 7 7 0 010-14zm0 4.67a2.33 2.33 0 100 4.66 2.33 2.33 0 000-4.66z"/><path fill="#CAE9F8" fill-rule="nonzero" d="M37 25.5a6 6 0 110 12 6 6 0 010-12zm0 4a2 2 0 100 4 2 2 0 000-4z"/><circle cx="38" cy="30" r="1" fill="#FFF" fill-opacity=".4" fill-rule="nonzero"/><circle cx="16" cy="30" r="1" fill="#FFF" fill-opacity=".4" fill-rule="nonzero"/></g></g></svg>