<svg xmlns="http://www.w3.org/2000/svg" xmlns:xlink="http://www.w3.org/1999/xlink" viewBox="0 0 100 100"><defs/><defs><circle id="a" cx="50" cy="50" r="50"/></defs><g fill="none" fill-rule="evenodd"><g transform="matrix(-1 0 0 1 100 0)"><mask id="b" fill="#fff"><use xlink:href="#a"/></mask><path fill="#EAEAEA" d="M48.26 72.63L30.52 75c-.32.04-.62-.02-.88-.16l16.96 9.23c.26.14.56.2.88.15l17.73-2.37-16.95-9.22z" mask="url(#b)"/><path stroke="#FAFAFA" stroke-width=".5" d="M48.26 72.63L30.52 75c-.32.04-.62-.02-.88-.16l16.96 9.23c.26.14.56.2.88.15l17.73-2.37-16.95-9.22z" mask="url(#b)"/><path fill="#FFFEFD" d="M49.3 130.93l-.03-.02.13.08-.1-.06m-.26-.25a.27.27 0 00-.02-.01l.1.09-.08-.08m34.2-61.57c-.3-.1-.63-.12-.96-.08l-10.1 1.42c-.71.1-1.37.52-1.84 1.12a3.21 3.21 0 00-.45.81l-16.96-9.23-3.13 8.2 16.95 9.22-16.95-9.23a2.75 2.75 0 01-.09.2 3.37 3.37 0 01-.13.23 2.22 2.22 0 01-.26.3c0 .02-.01.02-.02.03a2.1 2.1 0 01-.3.25.12.12 0 01-.01 0l-.3.15a2.16 2.16 0 01-.09.04 1.6 1.6 0 01-.34.09l16.95 9.23c.12-.02.24-.05.35-.1l.1-.03c-.15.06-.3.1-.45.13l-17.73 2.36a1.4 1.4 0 01-1.53-.92l-2.75-7.23a2.12 2.12 0 00-2.32-1.36l-10.32 1.45c-.55.08-1.06.34-1.48.73-.6.58-1 1.41-1 2.3 0 .34.06.69.19 1l20.36 49.83-16.96-9.22a2.09 2.09 0 00.08.18l.08.13.02.05.02.03.12.16.06.07.03.04.04.04a2.16 2.16 0 00.13.13l.06.05.04.03.04.03.15.1.09.05 16.96 9.23-.03-.02c.4.23.86.32 1.35.25l10.9-1.54a3.01 3.01 0 002.2-1.94l13.94-37.61 6.61-17.84.08-.24c.38-1.35-.2-2.7-1.4-3.07" mask="url(#b)"/><path fill="#EAEAEA" d="M53.6 63.27l16.96 9.23-3.14 8.19-16.96-9.23 3.14-8.19zM66.2 59.8l.2.01a2.2 2.2 0 01.25.05l.12.03 16.96 9.23a2.21 2.21 0 00-.57-.1h-.2l-.19.02-10.1 1.43c-.17.02-.33.06-.48.12l-.15.06-.17.07-.24.14a3 3 0 00-.27.19l-.15.13a3.08 3.08 0 00-.38.4 3.13 3.13 0 00-.24.36l-.02.05-.1.2-.09.2-16.96-9.22.05-.13.05-.1.1-.2.06-.1.12-.18.12-.16.07-.08.15-.16.13-.13.13-.1.1-.09.14-.09.25-.15.1-.04.24-.1a2.87 2.87 0 01.31-.09l.17-.03 10.1-1.42c.13-.02.26-.03.4-.02z" mask="url(#b)"/><g mask="url(#b)"><path stroke="#FFF" stroke-width=".5" d="M49.6 79.75l-16.95-9.22a2.1 2.1 0 01-.88-.94l16.96 9.23c.2.41.5.73.87.94z"/><path fill="#FFFEFD" d="M48.66 78.67L47.4 73.8l-16.96-9.22 1.26 4.88.07.14 16.96 9.23z"/><path fill="#E5E5E5" d="M47.4 73.8l-16.95-9.23 17.93-2.52 16.95 9.22z"/><path fill="#FFFEFD" d="M47.4 73.8l17.93-2.53-1.28 5.24c-.37 1-1.2 1.73-2.13 1.93l-.16.03-10.82 1.52a2.1 2.1 0 01-2.22-1.17l-.06-.15-1.26-4.88z"/><path stroke="#FFF" stroke-width=".5" d="M47.4 73.8l17.93-2.53-1.28 5.24c-.37 1-1.2 1.73-2.13 1.93l-.16.03-10.82 1.52a2.1 2.1 0 01-2.22-1.17l-.06-.15-1.26-4.88z"/><path fill="#FCFCFC" d="M71.71 37.8a6.84 6.84 0 012.63 1.54c.74.7 1.35 1.58 1.77 2.6.41 1 .64 2.15.64 3.38a10.83 10.83 0 01-2.43 6.66c-.76.92-1.65 1.7-2.64 2.28l.03-16.46z"/></g><path fill="#EAEAEA" d="M73.21 65.81v-.05l-34.78 4.29-.57-32.12c-.02-.99-.33-2-.69-2.27l-9.24-6.7 34.78-4.3a5.12 5.12 0 00-.2-.14 3.95 3.95 0 00-.3-.17h-.01a3.15 3.15 0 00-.32-.15l-.12-.04-.11-.04c-.04 0-.07-.02-.11-.03l-.25-.04-.1-.01h-.02a2.11 2.11 0 00-.42 0l-34.77 4.3c.14-.03.3-.03.44-.01l.1.01c-3-.4-5.12 5.4-4.85 14.32.3 9.76 3.48 19.5 7.06 22.1l9.08 6.6c.07.05.14.06.21.04l-.02.02 34.78-4.3c.06 0 .11-.04.16-.1l.05-.06c.02-.03.04-.05.05-.09a.93.93 0 00.04-.08l.02-.06v-.02l.03-.07a3.52 3.52 0 00.01-.07l.02-.06v-.07a1.53 1.53 0 00.02-.06v-.07l.01-.06v-.07l.01-.06a1.62 1.62 0 010-.07V66a1.4 1.4 0 00.01-.06v-.12z" mask="url(#b)"/><path fill="#FFF" d="M72.14 33.64v-.04a.66.66 0 010-.05v-.04-.03l-.01-.03v-.03-.04-.03a.24.24 0 000-.02l-.01-.03v-.02-.02-.03-.02l-.01-.03v-.02a.18.18 0 000-.02v-.03l-.01-.02v-.05l-.01-.03v-.03l-.01-.03v-.03-.01l-.02-.08-.02-.1-.01-.08-.01-.04a.36.36 0 010-.03.27.27 0 01-.01-.02v-.01l-.01-.03v-.03l-.02-.02v-.03-.03l-.02-.02a.98.98 0 010-.03v-.02l-.02-.03v-.03l-.01-.03a.1.1 0 000-.01l-.01-.02-.01-.03a.55.55 0 00-.02-.04v-.03a2.87 2.87 0 00-.02-.05l-.02-.05-.02-.06v-.01h-.01a.25.25 0 01-.02-.04 1.16 1.16 0 00-.02-.06.85.85 0 00-.03-.06 2.94 2.94 0 01-.03-.06.85.85 0 00-.01-.03.1.1 0 00-.01-.02.46.46 0 00-.03-.04c0-.02-.02-.03-.03-.05l-.02-.03a.32.32 0 00-.03-.04.06.06 0 000-.01h-.01a.12.12 0 00-.02-.02l-.02-.03a.26.26 0 00-.03-.03.7.7 0 00-.03-.03l-.02-.02h-.01l-9.24-6.72-34.77 4.3 9.23 6.7a.73.73 0 01.13.14 1.38 1.38 0 01.13.2 3.64 3.64 0 01.21.53 5.36 5.36 0 01.16.67l.04.36.02.37.58 32.12 34.77-4.29-.57-32.12z" mask="url(#b)"/><path stroke="#FFF" stroke-width=".5" d="M72.14 33.64v-.04a.66.66 0 010-.05v-.04-.03l-.01-.03v-.03-.04-.03a.24.24 0 000-.02l-.01-.03v-.02s0 0 0 0v-.02-.03-.02l-.01-.03v-.02a.18.18 0 000-.02v-.03l-.01-.02v-.05l-.01-.03v-.03l-.01-.03v-.03-.01s0 0 0 0l-.02-.08-.02-.1-.01-.08-.01-.04a.36.36 0 010-.03.27.27 0 01-.01-.02v-.01l-.01-.03v-.03l-.02-.02v-.03-.03l-.02-.02a.98.98 0 010-.03v-.02l-.02-.03v-.03l-.01-.03a.1.1 0 000-.01s0 0 0 0l-.01-.02-.01-.03a.55.55 0 00-.02-.04v-.03a2.87 2.87 0 00-.02-.05l-.02-.05-.02-.06v-.01h-.01a.25.25 0 01-.02-.04 1.16 1.16 0 00-.02-.06.85.85 0 00-.03-.06 2.94 2.94 0 01-.03-.06.85.85 0 00-.01-.03.03.03 0 000 0 .1.1 0 00-.01-.02.46.46 0 00-.03-.04c0-.02-.02-.03-.03-.05l-.02-.03a.32.32 0 00-.03-.04.06.06 0 000-.01h-.01a.12.12 0 00-.02-.02l-.02-.03a.26.26 0 00-.03-.03.7.7 0 00-.03-.03l-.02-.02h-.01l-9.24-6.72-34.77 4.3 9.23 6.7a.73.73 0 01.13.14 1.38 1.38 0 01.13.2c.04.06.08.15.11.23h0l.1.3h0a5.36 5.36 0 01.16.67s0 0 0 0l.04.36v0l.02.37.58 32.12 34.77-4.29-.57-32.12z" mask="url(#b)"/><path fill="#F1FCFF" d="M51.23 25.43c-.98.08-2.03-.06-2.36-.31-.33-.26.2-.54 1.17-.62.97-.09 2.03.05 2.35.3.33.26-.19.54-1.16.63" mask="url(#b)"/><g mask="url(#b)"><path fill="#BEF0FF" d="M48.77 29.45c0 .05.03.1.1.15.33.26 1.38.4 2.35.31v-4.48c-.97.08-2.02-.06-2.35-.31-.06-.05-.1-.1-.1-.16"/><path fill="#BEF0FF" d="M52.38 29.61a.83.83 0 01-.15.09l-.08.03-.09.03-.1.03-.17.04-.19.04-.21.03-.17.01v-4.48l.26-.03.12-.02.3-.06.13-.03.09-.03.12-.05.15-.08.05-.05a.19.19 0 00.05-.08v-.03 4.48c0 .04-.02.09-.06.13l-.05.03z"/><path fill="#55D7FF" d="M57.33 21.63a6.7 6.7 0 10-13.4 0 6.7 6.7 0 0013.4 0" opacity=".6"/><path fill="#25AAE1" d="M54.8 21.63a4.17 4.17 0 10-8.34 0 4.17 4.17 0 008.34 0"/><path fill="#FDFFFF" d="M54.62 20.44a4.17 4.17 0 00-2.83-2.83 2.08 2.08 0 002.83 2.83"/><path fill="#FFF" d="M37.75 42.67l-.03 16.46a6.8 6.8 0 01-2.62-1.54 7.37 7.37 0 01-1.77-2.6 8.84 8.84 0 01-.65-3.38c0-1.23.24-2.44.66-3.57a10.78 10.78 0 011.78-3.1c.75-.9 1.64-1.68 2.63-2.27"/></g><path fill="#0E3151" d="M55.3 40.66c-7.19 1.01-14.37 2.43-15.64 3.43-2.54 2-4.23 4.06-4.24 7.4 0 3.35 1.68 4.95 4.21 6.22 1.27.65 8.45.05 15.64-.96 7.18-1.01 14.37-2.43 15.64-3.43 2.54-1.99 4.23-4.06 4.24-7.4 0-3.35-1.68-4.95-4.21-6.22-1.27-.64-8.45-.05-15.64.96" mask="url(#b)"/><path fill="#EAEAEA" d="M28.27 80.2c-.05-.12-.08-.24-.1-.36l-.05-.16a2.8 2.8 0 01-.05-.5c0-.2.03-.4.07-.58l.01-.08a3.2 3.2 0 01.2-.59v-.02a3.15 3.15 0 01.32-.54 3.16 3.16 0 01.4-.48l.3-.24.06-.04a2.78 2.78 0 01.33-.2l.26-.1.13-.06a2.4 2.4 0 01.42-.1l10.31-1.44c.37-.05.71-.02 1.03.1a2.03 2.03 0 01.3.13L25.27 65.7c-.4-.2-.85-.3-1.34-.23l-10.31 1.45a2.6 2.6 0 00-.42.1l-.13.05-.26.11h-.01a2.95 2.95 0 00-.28.17l-.04.03-.05.04-.12.09a2.54 2.54 0 00-.18.15 2.93 2.93 0 00-.15.15 3.32 3.32 0 00-.14.16 2.86 2.86 0 00-.12.16.02.02 0 010 .01 4.9 4.9 0 00-.13.18 2.99 2.99 0 00-.1.2l-.08.15-.01.03-.02.03a3.43 3.43 0 00-.09.24 2.96 2.96 0 00-.08.3v.02l-.02.07c-.02.13-.05.26-.06.4a3.3 3.3 0 000 .19c0 .16.01.32.04.48v.02l.05.16.07.28a.9.9 0 00.03.07l20.36 49.83 16.96 9.22L28.27 80.2z" mask="url(#b)"/></g><g fill-rule="nonzero"><path fill="#CAE9F8" d="M54.95 45c-.34-.05-.63.18-.7.53-.05.41.21.83.6.95.45.14.85.35 1.22.63a5.26 5.26 0 011.6 2.18c.12.28.37.47.63.5.1.02.2.01.3-.02.34-.15.49-.58.32-.97a7.15 7.15 0 00-2.15-2.9 5.5 5.5 0 00-1.71-.88.68.68 0 00-.11-.02"/><path fill="#9A9A9A" d="M51.68 60.2c-.27-.03-.55.02-.79.17a5.12 5.12 0 01-3.65 1l-4.9-.7c-.73-.1-1.33.47-1.33 1.26 0 .8.6 1.53 1.34 1.63l4.9.7c1.82.25 3.6-.25 5.24-1.35.6-.39.71-1.27.27-1.97a1.55 1.55 0 00-1.08-.73"/><path fill="#CAE9F8" d="M35.58 45.28a7.45 7.45 0 00-5.24 1.33c-.6.4-.71 1.28-.27 1.98.26.42.66.67 1.07.73.28.04.56-.01.8-.17a5.21 5.21 0 013.65-1c1.14.18 2.33.78 3.65 2.02.24.23.53.36.8.4.41.06.81-.08 1.07-.43.44-.58.32-1.5-.28-2.05-1.64-1.56-3.42-2.56-5.25-2.81"/><path fill="#CAE8F7" d="M53.38 47.65c-1.96-.28-3.55 1.22-3.55 3.34 0 2.13 1.6 4.07 3.57 4.35 1.97.27 3.56-1.22 3.55-3.35 0-2.12-1.6-4.06-3.57-4.34"/></g></g></svg>