<svg xmlns="http://www.w3.org/2000/svg" viewBox="0 0 100 100"><defs/><g fill="none" fill-rule="evenodd" transform="translate(16 13)"><path fill="#FEFEFE" fill-rule="nonzero" d="M3 59h12.47a3 3 0 012.72 1.72l.07.18 3.35 8.52a2 2 0 001.69 1.27h.16l21.43.15a2 2 0 001.78-1.06l.07-.14 3.77-8.67a3 3 0 012.55-1.8h12.42a3 3 0 011.16.23 3 3 0 011.67 3.76l-.07.17-6.38 15.2A49.77 49.77 0 0134 87c-10 0-19.32-2.94-27.13-8L.23 63.17a3 3 0 01-.22-.92L0 62a3 3 0 012.82-3H3z"/><g fill-rule="nonzero"><path fill="#FFF" d="M45 59l-1.53 5.66a3 3 0 01-2.57 1.83l-.2.01H27.64a3 3 0 01-2.69-1.66l-.08-.18L23.34 59H45z"/><g transform="translate(8.84)"><path fill="#FFF" d="M28 11.58v1.65h15c2.2 0 4 1.78 4 3.98v5.52a10.42 10.42 0 010 17.8v9.5c0 2.19-1.8 3.97-4 3.97H9c-2.2 0-4-1.78-4-3.98v-9.5a10.42 10.42 0 010-17.79v-5.52c0-2.2 1.8-3.98 4-3.98h15v-1.65c-1.77-.77 5.77-.77 4 0zM15 25.66c-3.31 0-6 2.67-6 5.97s2.69 5.96 6 5.96 6-2.67 6-5.96c0-3.3-2.69-5.97-6-5.97zm22 0c-3.31 0-6 2.67-6 5.97s2.69 5.96 6 5.96 6-2.67 6-5.96c0-3.3-2.69-5.97-6-5.97zm-22 3.98a2 2 0 110 3.98 2 2 0 110-3.98zm22 0a2 2 0 110 3.98 2 2 0 110-3.98z"/><circle cx="26" cy="6.5" r="5" fill="#25AAE1"/><circle cx="26" cy="6.5" r="6.5" fill="#25AAE1" opacity=".6"/><circle cx="27" cy="5.5" r="2" fill="#FFF" fill-opacity=".6"/><path fill="#0A3152" d="M44.5 23.87c3 1.84 5 3.88 5 7.63s-2 5.8-5 7.63-34 1.83-37 0c-3-1.84-5-3.88-5-7.63s2-5.8 5-7.63 34-1.83 37 0z"/><path fill="#F5F4F5" d="M38.25 15.5h4.5c.97 0 1.75.78 1.75 1.75v1c0 .97-.78 1.75-1.75 1.75h-4.5c-.97 0-1.75-.78-1.75-1.75v-1c0-.97.78-1.75 1.75-1.75z"/></g></g><circle cx="45.5" cy="33" r="4" fill="#CAE9F8" fill-rule="nonzero"/><path stroke="#CAE9F8" stroke-linecap="round" stroke-width="1.57" d="M47.26 26.8c.6.1 1.16.29 1.65.57.87.5 1.57 1.29 2.1 2.37"/><path stroke="#CAE9F8" stroke-linecap="round" stroke-width="3" d="M20.5 32.5c1.67-1.24 3.33-1.86 5-1.86s3.33.62 5 1.86"/><path stroke="#9A9A9A" stroke-linecap="round" stroke-width="3" d="M32.5 48.36H38c1.67 0 3.33-.62 5-1.86"/></g></svg>