<svg xmlns="http://www.w3.org/2000/svg" viewBox="0 0 100 100"><defs/><g fill="none"><circle cx="50" cy="50" r="50" fill="#9A9A9A"/><path fill="#B4B4B4" d="M38.44 97.71c.14.24.23.5.28.75a49.33 49.33 0 01-4.43-1.24l.73-.42a2.5 2.5 0 013.42.91zm32.86-2.73l-.41.2a49.63 49.63 0 01-8.1 2.9l5.71-3.3a2.5 2.5 0 012.8.2zM23.44 71.73a2.5 2.5 0 01-.78 3.33l-.14.09-11.1 6.4a50.18 50.18 0 01-3-4.03l11.6-6.7a2.5 2.5 0 013.42.91zm33.48-2a2.5 2.5 0 01-.78 3.32l-.14.09-12.99 7.5-.14.07a2.5 2.5 0 01-2.5-4.32l.14-.08 13-7.5a2.5 2.5 0 013.41.91zM90.4 67.7a2.5 2.5 0 01-.77 3.33l-.14.09-13 7.5-.14.07a2.5 2.5 0 01-2.5-4.32l.15-.08 12.99-7.5a2.5 2.5 0 013.41.91zM41.92 43.74a2.5 2.5 0 01-.78 3.33l-.14.09-12.99 7.5-.14.07a2.5 2.5 0 01-2.5-4.32l.14-.08 13-7.5a2.5 2.5 0 013.41.91zM8.44 45.75a2.5 2.5 0 01-.78 3.33l-.14.09-7.39 4.26a50.88 50.88 0 01-.09-5.72l4.98-2.87a2.5 2.5 0 013.42.91zm66.96-4.02a2.5 2.5 0 01-.77 3.33l-.14.09-13 7.5-.14.07a2.5 2.5 0 01-2.5-4.32l.15-.08 12.99-7.5a2.5 2.5 0 013.41.91zm24.05.55a50.25 50.25 0 01.51 5.48l-4.98 2.88-.15.07a2.5 2.5 0 01-2.5-4.32l.15-.08 6.97-4.03zM26.92 17.76a2.5 2.5 0 01-.78 3.33l-.14.09-12.99 7.5-.14.07a2.5 2.5 0 01-2.5-4.32l.14-.08 13-7.5a2.5 2.5 0 013.41.91zm33.48-2.01a2.5 2.5 0 01-.77 3.33l-.14.09-13 7.5-.14.07a2.5 2.5 0 01-2.5-4.32l.15-.08 12.99-7.5a2.5 2.5 0 013.41.91zm25.83-.48a50.28 50.28 0 013.31 3.86l-9.56 5.53-.15.07a2.5 2.5 0 01-2.5-4.32l.15-.08 8.75-5.06z"/></g></svg>