<svg xmlns="http://www.w3.org/2000/svg" viewBox="0 0 100 100"><defs/><g fill="none"><circle cx="50" cy="50" r="50" fill="#0E4677"/><path fill="#0F528C" d="M82 39v11h18a50.59 50.59 0 01-.26 5.14H95.6V65.3h2.02a49.79 49.79 0 01-5.79 12.1v-4.72h-6.38v10.17h2.25A49.88 49.88 0 0150 100c-5.3 0-10.41-.82-15.2-2.35v-9.47h-6.7v6.78a49.89 49.89 0 01-3.77-2.04v-4.74h-6.38v.2a50.3 50.3 0 01-7.3-7.53h.58V70.68H4.85v.83a49.63 49.63 0 01-3.76-11.1v-7.27h-1A50.88 50.88 0 01.05 48H15v17.5h33V39h34zM44.73 88.18h-6.38v10.17h6.38V88.18zm0-17.54h-6.38v10.48h6.38V70.64zm-20.4 0h-6.38V80.8h6.38V70.64zm10.26 0H28.1V80.8h6.49V70.64zm33.7-8.96H61.6v10.17h6.7V61.68zm9.94 0h-6.38v10.17h6.38V61.68zm-20.4 0h-6.38v10.17h6.38V61.68zm34-6.54h-6.38V65.3h6.38V55.14zm-80.6-2H4.85v10.48h6.38V53.14zm67-9h-6.38v10.48h6.38V44.14zm-20.4 0h-6.38V54.3h6.38V44.14zm10.26 0H61.6V54.3h6.49V44.14z"/></g></svg>