<svg id="Layer_1" xmlns="http://www.w3.org/2000/svg" viewBox="0 0 231.9 81.2">
  <style>
    .st0{fill:#fff}
  </style>
  <path class="st0" d="M86 20.9h11v29.5h18.8V60H86zM118.9 20.9h10.8v29.5h18.8V60h-29.6zM215.2 20.9l-7.9 14.2-7.9-14.2h-12.5l14.9 24.9V60h11.1l.1-14.3 14.7-24.8zM169.3 19.8c-11.5 0-21.1 9.3-21.1 20.8s9.6 20.8 21.1 20.8c11.5 0 20.8-9.3 20.8-20.8s-9.6-20.8-21.1-20.8m.2 31.1c-5.4 0-9.8-4.7-9.8-10.4s4.4-10.4 9.8-10.4 9.8 4.7 9.8 10.4-4.4 10.4-9.8 10.4M67.1 20.6H56.7L40.1 60h11.4l3.1-7.1 14.7.1 2.8 7.1h11.6L67.1 20.6zm-9.2 23.3l4-10.1 4 10.1h-8zM54.1 0C21.4 12.9 3.5 41.6 4.2 74.5c0 2.3.1 4.5.3 6.7L54.1 0z"/>
</svg>